<svg width="36" height="30" viewBox="0 0 36 30" fill="none" xmlns="http://www.w3.org/2000/svg">
<path fill-rule="evenodd" clip-rule="evenodd" d="M16.1828 0.0938058C13.999 0.380681 11.6488 1.24011 9.88212 2.39787C8.18953 3.50708 6.65568 5.0414 5.53212 6.74921C5.02082 7.52631 4.21503 9.14203 4.21503 9.39012C4.21503 9.64932 4.46601 10.1227 4.69128 10.2883C4.96281 10.4879 5.60836 10.485 5.88186 10.283C6.00337 10.1932 6.28574 9.74516 6.60859 9.12993C7.25632 7.89551 7.8419 7.05732 8.67915 6.16625C10.5187 4.20838 12.8155 2.9288 15.5387 2.34464C16.3577 2.16896 16.5564 2.15375 18.0132 2.15502C19.4568 2.15622 19.6755 2.17307 20.4812 2.34471C23.8622 3.06498 26.7551 5.02165 28.6536 7.87194C29.5608 9.2339 30.2089 10.7459 30.5414 12.2757L30.6728 12.88L30.4853 12.7573C30.3821 12.6899 29.7097 12.241 28.9912 11.76C28.1688 11.2095 27.592 10.8703 27.4346 10.8446C27.0861 10.7877 26.5769 11.0237 26.3927 11.3275C26.2091 11.6303 26.2054 12.1254 26.3847 12.4209C26.4752 12.5702 27.2855 13.1619 28.866 14.2329C30.1568 15.1076 31.3211 15.8794 31.4534 15.948C31.7522 16.103 32.2083 16.0643 32.4939 15.8599C32.6054 15.7801 33.4399 14.5929 34.3483 13.2216C35.9827 10.7547 36 10.7246 36 10.3544C36 9.9541 35.8732 9.71196 35.528 9.45276C35.2798 9.26646 34.6809 9.26618 34.4261 9.45226C34.3237 9.52694 33.8989 10.096 33.482 10.7168C33.065 11.3375 32.6928 11.8561 32.6548 11.869C32.6168 11.882 32.5857 11.8299 32.5857 11.7531C32.5857 11.2883 31.9423 9.45722 31.3765 8.31198C29.0936 3.69076 24.6809 0.613622 19.5471 0.0629452C18.6589 -0.0323261 17.0293 -0.0173912 16.1828 0.0938058ZM17.4428 5.74199C17.0317 6.01811 16.9574 6.26535 16.9573 7.35736L16.9572 8.31948L16.3985 8.43011C14.5683 8.79266 13.2938 10.3241 13.2843 12.1724C13.2757 13.8285 14.2489 15.2395 15.8041 15.8257C16.255 15.9956 16.3978 16.0111 17.8724 16.0503C19.4395 16.0919 19.4599 16.0944 19.7861 16.2872C20.5936 16.7645 20.8795 17.784 20.4358 18.6038C20.2155 19.0107 19.8258 19.323 19.3846 19.4462C19.2094 19.4951 18.3257 19.5246 17.0276 19.525C15.0799 19.5257 14.9365 19.5345 14.7214 19.6664C14.0165 20.0984 14.0456 21.1285 14.7737 21.5175C14.9782 21.6268 15.1802 21.6486 15.9881 21.6486H16.9572L16.9573 22.6219C16.9574 23.4072 16.9812 23.6427 17.0805 23.8414C17.4591 24.5991 18.5672 24.5991 18.9458 23.8414C19.0449 23.6431 19.0689 23.4077 19.069 22.633L19.0691 21.6709L19.6278 21.5603C21.458 21.1977 22.7325 19.6663 22.742 17.818C22.7507 16.1504 21.7843 14.755 20.2081 14.1592C19.7771 13.9963 19.6089 13.9777 18.1892 13.9358C17.1991 13.9066 16.5643 13.8579 16.4295 13.8008C16.0642 13.646 15.7987 13.3966 15.5914 13.0137C15.0674 12.0458 15.58 10.8406 16.6417 10.5442C16.8165 10.4954 17.6906 10.4658 18.9635 10.4655C20.7662 10.4651 21.0338 10.4505 21.2501 10.3412C22.0043 9.96026 22.0057 8.87526 21.2526 8.47287C21.0481 8.36358 20.8461 8.34178 20.0382 8.34178H19.0691L19.069 7.36854C19.0689 6.58322 19.0451 6.34774 18.9458 6.14898C18.7692 5.79536 18.4174 5.58132 18.0132 5.58132C17.7861 5.58132 17.6068 5.63179 17.4428 5.74199ZM3.65072 14.0615C3.45466 14.1638 3.07007 14.6925 1.73363 16.6968C0.728404 18.2044 0.0440589 19.2992 0.0173075 19.4424C-0.118562 20.1708 0.567754 20.8223 1.2968 20.6569C1.65837 20.5749 1.7884 20.4296 2.60058 19.1995C2.99644 18.6001 3.33942 18.1099 3.36286 18.1103C3.3863 18.1108 3.47993 18.4214 3.57096 18.8005C3.66205 19.1796 3.86135 19.8242 4.01384 20.233C5.83026 25.1007 10.0396 28.7095 15.0668 29.7092C21.069 30.9027 27.1352 28.3593 30.4931 23.2412C31.0189 22.4397 31.7248 21.0342 31.7796 20.6794C31.8347 20.3225 31.584 19.8394 31.2463 19.6522C30.942 19.4834 30.4075 19.5135 30.1341 19.715C30.0252 19.7951 29.7368 20.255 29.4508 20.8043C28.8735 21.913 28.5445 22.4148 27.8396 23.2615C24.4264 27.3618 18.8033 28.9289 13.8244 27.1676C10.1437 25.8655 7.09082 22.7623 5.86926 19.0814C5.60484 18.2847 5.31931 17.0954 5.40132 17.1325C5.42751 17.1443 6.0989 17.5929 6.89335 18.1292C8.49604 19.2113 8.6486 19.2725 9.16645 19.0422C9.573 18.8614 9.77589 18.5487 9.77624 18.1023C9.77674 17.5405 9.6472 17.4226 7.2421 15.795C6.02252 14.9698 4.86791 14.2133 4.67643 14.114C4.26509 13.9008 3.9861 13.8865 3.65072 14.0615Z" fill="#FFAC00"/>
</svg>
