<svg width="72" height="53" viewBox="0 0 72 53" fill="none" xmlns="http://www.w3.org/2000/svg">
<path d="M26.4777 49.8631H26.9777V50.3631V51.9554V52.4554H26.4777C12.1306 52.4554 0.5 40.8248 0.5 26.4777C0.5 12.1306 12.1306 0.500031 26.4777 0.500031H26.9777V1.00003V2.59239V3.09239H26.4777C13.5623 3.09239 3.09236 13.5624 3.09236 26.4777C3.09236 39.3931 13.5623 49.8631 26.4777 49.8631Z" fill="url(#paint0_linear_133_178)" stroke="url(#paint1_linear_133_178)"/>
<path d="M45.0443 49.8631H44.5443V50.3631V51.9554V52.4554H45.0443C59.3914 52.4554 71.022 40.8248 71.022 26.4777C71.022 12.1306 59.3914 0.500031 45.0443 0.500031H44.5443V1.00003V2.59239V3.09239H45.0443C57.9596 3.09239 68.4296 13.5624 68.4296 26.4777C68.4296 39.3931 57.9596 49.8631 45.0443 49.8631Z" fill="url(#paint2_linear_133_178)" stroke="url(#paint3_linear_133_178)"/>
<defs>
<linearGradient id="paint0_linear_133_178" x1="0.974252" y1="26.4777" x2="26.4777" y2="26.4777" gradientUnits="userSpaceOnUse">
<stop stop-color="#DA3633"/>
<stop offset="1" stop-color="#D29922"/>
</linearGradient>
<linearGradient id="paint1_linear_133_178" x1="0.974252" y1="26.4777" x2="26.4777" y2="26.4777" gradientUnits="userSpaceOnUse">
<stop stop-color="#DA3633"/>
<stop offset="1" stop-color="#D29922"/>
</linearGradient>
<linearGradient id="paint2_linear_133_178" x1="70.5477" y1="26.4777" x2="45.0443" y2="26.4777" gradientUnits="userSpaceOnUse">
<stop stop-color="#DA3633"/>
<stop offset="1" stop-color="#D29922"/>
</linearGradient>
<linearGradient id="paint3_linear_133_178" x1="70.5477" y1="26.4777" x2="45.0443" y2="26.4777" gradientUnits="userSpaceOnUse">
<stop stop-color="#DA3633"/>
<stop offset="1" stop-color="#D29922"/>
</linearGradient>
</defs>
</svg>
